<?xml version="1.0" encoding="UTF-8"?>
<svg id="Layer_1" xmlns="http://www.w3.org/2000/svg" version="1.1" viewBox="58 78 230 52">
  <!-- Generator: Adobe Illustrator 29.3.1, SVG Export Plug-In . SVG Version: 2.1.0 Build 151)  -->
  <defs>
    <style>
      .st0 {
        isolation: isolate;
      }

      .st1 {
        fill: #06b6d4;
      }

      .st2 {
        fill: #ffffff;
      }
    </style>
  </defs>
  <rect class="st2" x="-29" y="496" width="358.2" height="218.7"/>
  <g class="st0">
    <g class="st0">
      <path class="st2" d="M67.6,110.6c0-9.1,5.3-15.7,14.2-15.7s7.7,1.7,9.6,4.6v-18.6h7.2v44.2h-6.7l-.5-4.6c-1.8,3.4-5.6,5.3-10,5.3-8.5,0-13.8-6.2-13.8-15.3ZM91.3,110.4c0-5.3-3.3-9-8.3-9s-8.1,3.7-8.1,9,3.1,8.9,8.1,8.9,8.3-3.6,8.3-8.9Z"/>
      <path class="st2" d="M104.8,116.8c0-5.4,3.9-8.8,10.9-9.3l8.8-.7v-.7c0-4-2.4-5.6-6.1-5.6s-6.7,1.8-6.7,4.9h-6.2c0-6.4,5.2-10.5,13.2-10.5s12.8,4.3,12.8,12.4v17.8h-6.4l-.5-4.3c-1.2,3-5.2,5.1-9.8,5.1s-10-3.6-10-9.1ZM124.5,113.3v-1.5l-6.1.5c-4.5.4-6.2,1.9-6.2,4.3s1.8,4,5,4,7.3-2.7,7.3-7.2Z"/>
      <path class="st2" d="M138.8,125.2v-44.2h7.2v27.1l11.4-12.3h9.1l-11.2,11.6,10.9,17.7h-8.3l-7.7-12.4-4.3,4.5v7.9h-7.2Z"/>
      <path class="st2" d="M169.8,85.6c0-2.4,2-4.3,4.5-4.3s4.3,1.9,4.3,4.3-2,4.4-4.3,4.4-4.5-2-4.5-4.4ZM170.6,95.9h7.2v29.3h-7.2v-29.3Z"/>
      <path class="st2" d="M199.3,95c9.1,0,15.7,6.3,15.7,15.4s-6.6,15.4-15.7,15.4-15.7-6.3-15.7-15.4,6.6-15.4,15.7-15.4ZM199.3,119.4c5,0,8.4-3.6,8.4-9s-3.4-9-8.4-9-8.4,3.6-8.4,9,3.4,9,8.4,9Z"/>
    </g>
    <g class="st0">
      <g class="st0">
        <path class="st2" d="M220.8,121.2c0-2.6,2.2-4.8,4.8-4.8s4.8,2.1,4.8,4.8-2.2,4.7-4.8,4.7-4.8-2.1-4.8-4.7Z"/>
        <path class="st1" d="M237.2,85.6c0-2.4,2-4.3,4.5-4.3s4.3,1.9,4.3,4.3-2,4.4-4.3,4.4-4.5-2-4.5-4.4ZM238,95.9h7.2v29.3h-7.2v-29.3Z"/>
        <path class="st1" d="M266.7,95c9.1,0,15.7,6.3,15.7,15.4s-6.6,15.4-15.7,15.4-15.7-6.3-15.7-15.4,6.6-15.4,15.7-15.4ZM266.7,119.4c5,0,8.4-3.6,8.4-9s-3.4-9-8.4-9-8.4,3.6-8.4,9,3.4,9,8.4,9Z"/>
      </g>
    </g>
  </g>
</svg>